<svg xmlns="http://www.w3.org/2000/svg" width="32" height="32" viewBox="0 0 32 32"><path d="M15.929,39.621a8.2,8.2,0,1,0,8.2,8.2A8.19,8.19,0,0,0,15.929,39.621Zm0,13.538a5.334,5.334,0,1,1,5.333-5.334A5.343,5.343,0,0,1,15.929,53.159ZM26.38,39.285a1.913,1.913,0,1,1-1.913-1.914A1.909,1.909,0,0,1,26.38,39.285Zm5.433,1.942a9.471,9.471,0,0,0-2.584-6.7,9.529,9.529,0,0,0-6.7-2.585c-2.641-.15-10.558-.15-13.2,0a9.515,9.515,0,0,0-6.7,2.578,9.5,9.5,0,0,0-2.584,6.7c-.15,2.642-.15,10.561,0,13.2a9.471,9.471,0,0,0,2.584,6.7,9.541,9.541,0,0,0,6.7,2.585c2.641.15,10.558.15,13.2,0a9.467,9.467,0,0,0,6.7-2.585,9.534,9.534,0,0,0,2.584-6.7C31.962,51.781,31.962,43.869,31.813,41.227ZM28.4,57.258A5.4,5.4,0,0,1,25.359,60.3c-2.106.835-7.1.643-9.43.643S8.6,61.128,6.5,60.3a5.4,5.4,0,0,1-3.041-3.042c-.835-2.106-.642-7.1-.642-9.433s-.186-7.333.642-9.433A5.4,5.4,0,0,1,6.5,35.351c2.106-.835,7.1-.643,9.43-.643s7.332-.186,9.43.643A5.4,5.4,0,0,1,28.4,38.392c.835,2.106.642,7.1.642,9.433S29.235,55.158,28.4,57.258Z" transform="translate(0.075 -31.825)"/></svg>