<svg xmlns="http://www.w3.org/2000/svg" width="374.103" height="532.256" viewBox="0 0 374.103 532.256"><defs><style>.a{fill:none;}.b{fill:#93bfbf;}</style></defs><path class="a" d="M117.528,353.074l7.861,5.528a45.888,45.888,0,0,1,19.029,29.862c1.134,6.391,1.981,8.5,2.285,9.075a54.323,54.323,0,0,1,16.681,15.29c5.96-10.673,14.012-17.687,21.905-24.557,7.254-6.391,14.747-12.782,21.953-23.008a38.458,38.458,0,0,0,6.551-29.111l-2.365-13.325-10.4,1.837a56.832,56.832,0,0,1-55.793-22.225h0A33.776,33.776,0,0,0,108.9,289.994l7.318,9.858A46.223,46.223,0,0,1,117.528,353.074Z" transform="translate(22.006 58.874)"/><path class="a" d="M60.592,278.082A36.748,36.748,0,0,1,45.861,266.37a162.683,162.683,0,0,0,155.6,197.1,11.6,11.6,0,0,1-4.793-4.234l-11.839-18.805a30.021,30.021,0,0,0-9.379-8.947c-7.605-4.793-11.184-9.411-14.092-25.564a22.848,22.848,0,0,0-9.475-14.859l-17.32-12.191a11.648,11.648,0,0,1-2.86-16.2l6.1-8.676a23.008,23.008,0,0,0-.383-26.922l-16.792-22.64Z" transform="translate(-18.923 45.511)"/><path class="a" d="M56.14,268.32a38.027,38.027,0,0,1-1.1,20.643,13.022,13.022,0,0,0,7.525,15.8l30.469,13.373a49.4,49.4,0,0,1-1.262-9.587,54.419,54.419,0,0,1,22.017-44.737,15.977,15.977,0,0,1,3.2-1.9,36.892,36.892,0,0,1,5.736-12.782,36.493,36.493,0,0,1,23.743-15.258l14.571-2.556c6.5-2.492,28.6-21.953,48.987-44.737-4.154-.32-8.34-.479-12.51-.479A162.625,162.625,0,0,0,56.133,268.333Z" transform="translate(-11.563 -2.471)"/><path class="a" d="M199.566,238.137a13.677,13.677,0,0,0-3.2,8.612V261.48A13.645,13.645,0,0,0,210,275.029a36.844,36.844,0,0,1,35.422,26.826l28.488,5.241a161.98,161.98,0,0,0-41.382-88.036Z" transform="translate(75.386 17.231)"/><circle class="b" cx="11.616" cy="11.616" r="11.616" transform="translate(298.445 459.731) rotate(-13.28)"/><path class="b" d="M252.172,184.779h-.321a187.614,187.614,0,0,0-25.534-3.323V155.7l-23.365.288v25.4C103.515,187.543,27.62,269.811,27.62,366.954a185.7,185.7,0,0,0,91.125,159.659,187.88,187.88,0,0,0,184.51,4.046,11.587,11.587,0,0,0,4.732-15.746,11.721,11.721,0,0,0-15.836-4.705,164.176,164.176,0,0,1-70.383,19.269,11.635,11.635,0,0,0,6.138-8.58c2.764-18.5,10.606-25.292,22.5-35.6,7.922-6.87,16.921-14.667,25.711-27.066a61.174,61.174,0,0,0,10.541-46.59l-4.387-24.781a11.693,11.693,0,0,0-13.546-9.427l-21.951,3.851A34.016,34.016,0,0,1,213.493,368.1a57.452,57.452,0,0,0-67.668-18.949l-.209-.144c-8.726-5.736-13.707-13.932-14-23.087a29.531,29.531,0,0,1,4.981-17.08,11,11,0,0,0,6.428,5.209,11.764,11.764,0,0,0,11.682-2.492c5-4.618,3.792-10.273,2.892-13.852-.37-4.793-3.632-10.721.98-17.256a13.49,13.49,0,0,1,8.79-5.576l15.041-2.636c16.069-2.828,52.579-40.215,71.91-63.143a163.372,163.372,0,0,1,62.991,31.252c-29.969,17.463-29.053,16.457-30.933,18.326a36.962,36.962,0,0,0-10.943,26.011v14.731a37.015,37.015,0,0,0,37.088,36.748A13.588,13.588,0,0,1,326.138,349.7a11.634,11.634,0,0,0,9.642,11.424l42.551,7.781a159.776,159.776,0,0,1-18.078,72.378,11.6,11.6,0,0,0,5.03,15.658h0a11.731,11.731,0,0,0,15.748-5,185.713,185.713,0,0,0-128.859-267.16ZM194.756,381.957h0a57.316,57.316,0,0,0,56.114,22.225l10.461-1.837,2.378,13.325a38.286,38.286,0,0,1-6.588,29.111c-7.247,10.146-14.784,16.68-22.079,23.008-7.938,6.87-16.069,13.884-22.031,24.557a54.521,54.521,0,0,0-16.76-15.243c-.305-.575-1.157-2.652-2.3-9.075a45.862,45.862,0,0,0-19.138-29.862l-7.906-5.576a46.008,46.008,0,0,0-1.334-53.269l-7.36-9.858A34.077,34.077,0,0,1,194.756,381.957Zm-47.951,11.264a22.9,22.9,0,0,1,.386,26.922l-6.138,8.676a11.605,11.605,0,0,0,2.876,16.2L161.413,457.2a22.835,22.835,0,0,1,9.529,14.859c2.86,16.169,6.524,20.771,14.173,25.564a30.121,30.121,0,0,1,9.433,8.947l11.907,18.806a11.646,11.646,0,0,0,4.821,4.234A163.946,163.946,0,0,1,86.227,467.793a161.976,161.976,0,0,1-31.514-135.27,36.924,36.924,0,0,0,14.816,11.712l60.388,26.347Zm31.142-143.8-14.655,2.556a37.036,37.036,0,0,0-29.648,27.913,16.09,16.09,0,0,0-3.214,1.9,54.312,54.312,0,0,0-22.143,44.737,49.136,49.136,0,0,0,1.269,9.586L78.913,322.745a13,13,0,0,1-7.569-15.8A37.819,37.819,0,0,0,72.453,286.3a163.721,163.721,0,0,1,142.181-82.044c4.194,0,8.4.16,12.582.479-20.5,22.736-42.728,42.2-49.268,44.689Zm170.173,90.369A37.025,37.025,0,0,0,312.5,312.966a13.685,13.685,0,0,1-13.707-13.549V284.686A13.631,13.631,0,0,1,302,276.074L335.089,256.9a161.587,161.587,0,0,1,41.684,88.132Z" transform="translate(-27.62 -20.642)"/><path class="b" d="M213.289,222.237A23.346,23.346,0,0,1,236.7,199.006c64.611-.07,116.971-52.063,117.042-116.22a11.574,11.574,0,0,0-3.432-8.219,11.74,11.74,0,0,0-8.282-3.4H306.919a117.263,117.263,0,0,0-105.328,65.508A117.263,117.263,0,0,0,96.263,71.17H61.154a11.74,11.74,0,0,0-8.282,3.4,11.575,11.575,0,0,0-3.432,8.219c.071,64.157,52.431,116.15,117.042,116.22a23.346,23.346,0,0,1,23.412,23.231v9.123l23.4-.288Zm93.63-127.82h22.688c-5.963,46.457-45.742,81.291-92.906,81.357a46.772,46.772,0,0,0-23.251,6.151c2.968-49.118,43.916-87.461,93.469-87.525ZM166.482,175.775h0c-47.172-.06-86.957-34.906-92.906-81.373H96.263c49.548.063,90.493,38.4,93.469,87.509a46.772,46.772,0,0,0-23.251-6.151Z" transform="translate(-14.577 -71.17)"/></svg>